<svg xmlns="http://www.w3.org/2000/svg" width="13.042" height="13.042" viewBox="0 0 13.042 13.042">
  <path id="calendar" d="M11.781,3.186h1.776A1.484,1.484,0,0,1,15.042,4.67v8.888a1.483,1.483,0,0,1-1.484,1.484H3.484A1.484,1.484,0,0,1,2,13.557V4.67A1.483,1.483,0,0,1,3.484,3.186H5.26V2.593a.593.593,0,0,1,1.186,0v.593H10.6V2.593a.593.593,0,0,1,1.186,0Zm0,1.186v.593a.593.593,0,0,1-1.186,0V4.371H6.446v.593a.593.593,0,0,1-1.186,0V4.371H3.484a.3.3,0,0,0-.3.3v8.888a.3.3,0,0,0,.3.3H13.558a.3.3,0,0,0,.3-.3V4.67a.3.3,0,0,0-.3-.3ZM8.521,9.114a.889.889,0,1,1,.889-.889A.889.889,0,0,1,8.521,9.114Zm3.26,0a.889.889,0,1,1,.889-.889A.889.889,0,0,1,11.781,9.114ZM5.26,12.374a.889.889,0,1,1,.889-.889A.889.889,0,0,1,5.26,12.374Zm3.26,0a.889.889,0,1,1,.889-.889A.889.889,0,0,1,8.521,12.374Z" transform="translate(-2 -2)" fill="#fff" opacity="0.5"/>
</svg>
