<svg id="business" xmlns="http://www.w3.org/2000/svg" width="26.806" height="18.741" viewBox="0 0 26.806 18.741">
  <g id="Group_6" data-name="Group 6" transform="translate(0)">
    <g id="Group_5" data-name="Group 5">
      <path id="Path_9" data-name="Path 9" d="M26.769,85.831c-.1-.694-.811-1.249-2.151-1.655a15.237,15.237,0,0,0-3.95-.555v-5.7a.5.5,0,0,0-.112-.32c-.176-.619-.891-1.121-2.13-1.495a15.892,15.892,0,0,0-4.42-.56,15.427,15.427,0,0,0-4.372.56c-.966.3-2.124.854-2.124,1.81a.983.983,0,0,0,.016.176l.059,2.434a6.387,6.387,0,1,0,2.834,11.231,15.875,15.875,0,0,0,3.422.374c.272,1.479,3.475,2.156,6.464,2.156a15.3,15.3,0,0,0,4.377-.571c.971-.3,2.124-.859,2.124-1.815V86.039A.553.553,0,0,0,26.769,85.831ZM9.955,77.13a14.418,14.418,0,0,1,4.057-.518,14.93,14.93,0,0,1,4.11.518c1.158.352,1.409.715,1.409.79s-.251.443-1.415.79a15.068,15.068,0,0,1-4.1.518,14.656,14.656,0,0,1-3.934-.48c-1.148-.331-1.468-.7-1.495-.817,0-.011,0-.016-.005-.016C8.583,77.84,8.829,77.477,9.955,77.13ZM19.6,79.254v1.366a.432.432,0,0,0-.069.256c0,.069-.251.438-1.415.79a15.109,15.109,0,0,1-4.11.518,15.272,15.272,0,0,1-3.635-.4c-.016-.005-.027-.005-.043-.011a6.3,6.3,0,0,0-1.671-.945l-.037-1.505a5.914,5.914,0,0,0,1.153.443,15.776,15.776,0,0,0,4.233.518,15.825,15.825,0,0,0,4.414-.56A5.786,5.786,0,0,0,19.6,79.254ZM9.971,90.736A5.32,5.32,0,1,1,6.389,81.48a5.472,5.472,0,0,1,1.58.235,5.369,5.369,0,0,1,3.64,4.009,5.582,5.582,0,0,1,.107,1.073A5.308,5.308,0,0,1,9.971,90.736Zm1.356.117A6.445,6.445,0,0,0,12.352,89.1c.454.037.934.064,1.425.069v.1l.027,1.81A16.809,16.809,0,0,1,11.327,90.853Zm1.42-4.687c.315.021.641.032.971.037,0,.011.005.027.005.037l.032,1.852q-.568-.008-1.1-.048a6.562,6.562,0,0,0,.123-1.249A5.016,5.016,0,0,0,12.747,86.167Zm1.313-1.025h-.048c-.512,0-1.009-.021-1.468-.053a6.328,6.328,0,0,0-.955-1.986,19.225,19.225,0,0,0,2.418.155,15.892,15.892,0,0,0,4.42-.56,6.861,6.861,0,0,0,1.174-.48v1.415C17.305,83.7,14.935,84.176,14.06,85.142Zm.715.822c.053-.149.443-.5,1.537-.806a14.655,14.655,0,0,1,3.822-.454H20.2a14.959,14.959,0,0,1,4.11.507c1.126.342,1.393.683,1.409.774v.005c-.005.08-.272.448-1.457.8a14.841,14.841,0,0,1-4.062.5,15.07,15.07,0,0,1-3.875-.459,2.819,2.819,0,0,1-1.532-.779A.452.452,0,0,0,14.775,85.964ZM25.739,91.9c0,.075-.24.443-1.372.8a14.278,14.278,0,0,1-4.062.523,14.525,14.525,0,0,1-4.051-.507c-1.132-.347-1.361-.7-1.361-.785v-.011l-.027-1.543a13.049,13.049,0,0,0,5.332.939,15.745,15.745,0,0,0,4.4-.56,6.22,6.22,0,0,0,1.137-.47V91.9Zm-.048-2.957c0,.075-.246.438-1.4.79a14.741,14.741,0,0,1-4.094.512c-2.93,0-4.916-.657-5.354-1.174l-.011-.459-.021-1.222a6.218,6.218,0,0,0,1.217.464,16.085,16.085,0,0,0,4.163.5,15.977,15.977,0,0,0,4.361-.544,6.109,6.109,0,0,0,1.18-.47v1.372h.005C25.739,88.788,25.691,88.868,25.691,88.948Z" transform="translate(0 -75.55)"/>
    </g>
  </g>
  <g id="Group_8" data-name="Group 8" transform="translate(2.525 7.465)">
    <g id="Group_7" data-name="Group 7">
      <path id="Path_10" data-name="Path 10" d="M53.828,222.037a.535.535,0,0,0-.689-.31v-.005a2.724,2.724,0,0,1-2.9-.625,1.757,1.757,0,0,1-.379-.486H52.6a.534.534,0,0,0,0-1.068H49.467a2.159,2.159,0,0,1-.016-.587h3.427a.534.534,0,1,0,0-1.068H49.766a3.146,3.146,0,0,1,.464-.63,2.724,2.724,0,0,1,2.9-.614.532.532,0,1,0,.384-.993,3.792,3.792,0,0,0-4.046.859,3.668,3.668,0,0,0-.881,1.382h-.758a.534.534,0,1,0,0,1.068h.534a3.6,3.6,0,0,0,.011.587h-.544a.534.534,0,0,0,0,1.068h.817a3.588,3.588,0,0,0,.822,1.244,3.79,3.79,0,0,0,4.046.865A.535.535,0,0,0,53.828,222.037Z" transform="translate(-47.3 -215.4)"/>
    </g>
  </g>
</svg>
