<svg id="time-and-date" xmlns="http://www.w3.org/2000/svg" width="13.014" height="13.014" viewBox="0 0 13.014 13.014">
  <g id="Group_2" data-name="Group 2">
    <g id="Group_1" data-name="Group 1">
      <path id="Path_7" data-name="Path 7" d="M6.507,0a6.507,6.507,0,1,0,6.507,6.507A6.514,6.514,0,0,0,6.507,0Zm0,12.064a5.557,5.557,0,1,1,5.557-5.557A5.563,5.563,0,0,1,6.507,12.064Z" fill="#9a9da8"/>
    </g>
  </g>
  <g id="Group_4" data-name="Group 4" transform="translate(5.715 3.182)">
    <g id="Group_3" data-name="Group 3">
      <path id="Path_8" data-name="Path 8" d="M227.865,128.522h-2.058v-2.85a.475.475,0,1,0-.95,0V129a.475.475,0,0,0,.475.475h2.533a.475.475,0,0,0,0-.95Z" transform="translate(-224.857 -125.197)" fill="#9a9da8"/>
    </g>
  </g>
</svg>
