<svg xmlns="http://www.w3.org/2000/svg" width="14" height="14" viewBox="0 0 14 14">
  <path id="phone-1" d="M14.584,12.884l-1.812-1.509a.486.486,0,0,0-.489-.026l-1.006.671a.637.637,0,0,1-.356.107,4.188,4.188,0,0,1-.9-.126A5.407,5.407,0,0,1,6,7.974a4.184,4.184,0,0,1-.126-.9.636.636,0,0,1,.107-.356l.671-1.006a.477.477,0,0,0-.026-.489L5.111,3.415a.3.3,0,0,0-.511,0l-1,1.222a1.784,1.784,0,0,0-.277,1.425.636.636,0,0,1,.019.074,3.27,3.27,0,0,0,.1.352A8.179,8.179,0,0,0,3.9,7.583,14.542,14.542,0,0,0,6.68,11.316a14.532,14.532,0,0,0,3.734,2.78,8.185,8.185,0,0,0,1.094.458,3.376,3.376,0,0,0,.353.1.636.636,0,0,1,.088.023,1.744,1.744,0,0,0,1.41-.281l1.223-1A.3.3,0,0,0,14.584,12.884ZM11.576,10.29a1.746,1.746,0,0,1,2.01.107L15.4,11.906a1.564,1.564,0,0,1-.011,2.474l-1.223,1a3,3,0,0,1-2.586.515q-.237-.054-.467-.132a9.449,9.449,0,0,1-1.267-.528A15.808,15.808,0,0,1,5.78,12.216,15.805,15.805,0,0,1,2.76,8.152a9.441,9.441,0,0,1-.528-1.266A4.783,4.783,0,0,1,2.1,6.411a3.04,3.04,0,0,1,.516-2.578l1-1.222A1.567,1.567,0,0,1,6.089,2.6L7.6,4.412a1.739,1.739,0,0,1,.107,2.01l-.55.824a3.761,3.761,0,0,0,.077.434,4.163,4.163,0,0,0,.645,1.436,4.108,4.108,0,0,0,1,1,4.166,4.166,0,0,0,1.437.645,3.694,3.694,0,0,0,.434.077l.825-.55Z" transform="translate(-2 -2)" fill="#9A9DA8"/>
</svg>
